<?xml version="1.0" encoding="UTF-8"?>
<svg id="Layer_1" data-name="Layer 1" xmlns="http://www.w3.org/2000/svg" viewBox="0 0 300 300">
  <defs>
    <style>
      .cls-1 {
        fill: #fff;
      }
    </style>
  </defs>
  <path class="cls-1" d="M300,216.85c-35.04-3.85-69.76-17.57-91.29-46.01-30.81-39.82-34.73-96.8-38.4-147.69,0,0-2.52,0-6.19,0h0s-1.86,0-4.7,0c-4.76,0-12.29,0-18.53,0h-5c-3.43,0-5.75,0-5.75,0-3.67,50.89-8.03,107.87-38.84,147.69-21.53,28.44-56.26,42.16-91.29,46.01v60.01c5.67-.42,11.15-1.07,16.09-2.13,49.15-9.89,94.22-32.03,120.09-74.15,5.53-9,10.07-18.39,13.82-28.05,3.75,9.66,8.29,19.05,13.82,28.05,25.87,42.12,70.94,64.26,120.09,74.15,4.94,1.07,10.42,1.71,16.09,2.13v-60.01Z"/>
</svg>