<?xml version="1.0" encoding="UTF-8"?>
<svg id="Layer_1" data-name="Layer 1" xmlns="http://www.w3.org/2000/svg" viewBox="0 0 660 200">
  <defs>
    <style>
      .cls-1 {
        fill: #1a1a1a;
      }
    </style>
  </defs>
  <polygon class="cls-1" points="108.18 88.93 55.96 88.93 55.96 38.72 30.23 38.72 30.23 160.4 55.96 160.4 55.96 110.14 108.18 110.14 108.18 160.4 133.85 160.4 133.85 38.72 108.18 38.72 108.18 88.93"/>
  <path class="cls-1" d="M223.41,115.54c0,13.9-9.74,23.94-24.72,23.94s-24.71-10.04-24.71-23.94V38.72h-25.73V117.74c0,26.62,20.08,44.38,50.44,44.38s50.44-17.76,50.44-44.38V38.72h-25.72V115.54Z"/>
  <path class="cls-1" d="M604.62,38.72V115.25h-1.07l-52.52-76.53h-22.58v92.05c-15.51-2.37-30.5-8.95-40.07-21.58-14.78-19.11-16.66-46.44-18.42-70.86h-2.97s-8.9,0-13.54,0h-2.76c-1.76,24.42-3.85,51.75-18.63,70.86-8.89,11.74-22.76,18.2-37.31,20.93V38.72h-31.73l-33.51,81.75h-1.43l-33.51-81.75h-31.73v121.68h24.95V80.91h1.01l31.49,78.9h16.99l31.49-78.6h1.01v50.22s-.02,0-.03,0v29.24c8.64,.08,18.58,.02,26.21-1.63,23.58-4.74,45.2-15.37,57.61-35.57,2.65-4.32,4.83-8.82,6.63-13.46,1.8,4.63,3.98,9.14,6.63,13.46,12.41,20.21,34.03,30.83,57.61,35.57,7.63,1.65,20.96,2.62,29.71,1.37V83.82h.89l52.94,76.58h22.22V38.72h-25.61Z"/>
</svg>